<svg width="22" height="22" viewBox="0 0 22 22" fill="none" xmlns="http://www.w3.org/2000/svg">
<path fill-rule="evenodd" clip-rule="evenodd" d="M4.8587 2.92463C6.93081 2.62048 9.02238 2.46811 11.1167 2.46875C13.2429 2.46875 15.3316 2.6245 17.3747 2.92375C19.1054 3.17925 20.3042 4.69475 20.3042 6.3975V11.665C20.3042 13.3678 19.1054 14.8833 17.3747 15.1388C15.6579 15.39 13.9275 15.5376 12.1929 15.5806C12.1057 15.5823 12.0224 15.6174 11.9602 15.6786L8.2992 19.3388C8.20742 19.4304 8.09054 19.4928 7.96332 19.5181C7.83609 19.5434 7.70423 19.5304 7.58439 19.4808C7.46455 19.4311 7.3621 19.3471 7.28998 19.2393C7.21786 19.1315 7.17931 19.0047 7.1792 18.875V15.4144C6.40332 15.3434 5.62953 15.2512 4.8587 15.1379C3.12795 14.8841 1.9292 13.3669 1.9292 11.6641V6.39838C1.9292 4.69563 3.12795 3.17838 4.8587 2.92463Z"/>
<line x1="6.6167" y1="11" x2="16.6167" y2="11" />
<line x1="6.6167" y1="8" x2="16.6167" y2="8" />
</svg>
