<svg width="15" height="14" viewBox="0 0 15 14" fill="none" xmlns="http://www.w3.org/2000/svg">
<g clip-path="url(#clip0_51_752)">
<path d="M13.3332 6.46334V7C13.3325 8.25792 12.9251 9.4819 12.1719 10.4894C11.4188 11.4969 10.3601 12.2339 9.1538 12.5906C7.9475 12.9473 6.65824 12.9044 5.47828 12.4685C4.29832 12.0326 3.29089 11.2269 2.60623 10.1716C1.92158 9.11636 1.59638 7.86804 1.67915 6.61285C1.76192 5.35767 2.24821 4.16286 3.0655 3.20663C3.88279 2.2504 4.9873 1.58398 6.21428 1.30675C7.44127 1.02953 8.72499 1.15637 9.87401 1.66834" stroke="white" stroke-width="2" stroke-linecap="round" stroke-linejoin="round"/>
<path d="M13.3333 2.33331L7.5 8.17248L5.75 6.42248" stroke="white" stroke-width="2" stroke-linecap="round" stroke-linejoin="round"/>
</g>
<defs>
<clipPath id="clip0_51_752">
<rect width="14" height="14" fill="white" transform="translate(0.5)"/>
</clipPath>
</defs>
</svg>
