<svg width="18" height="20" viewBox="0 0 18 20" fill="none" xmlns="http://www.w3.org/2000/svg">
<mask id="path-1-inside-1_198_379" fill="white">
<path fill-rule="evenodd" clip-rule="evenodd" d="M10.5683 9.28284H15.7037L9.28449 16.245L2.86524 9.28284H8.00064V0H10.5683V9.28284ZM15.7649 17.8948V15.9611H17.6165V17.8948C17.6165 18.4531 17.4214 18.9886 17.0742 19.3834C16.7269 19.7782 16.256 20 15.7649 20H2.80374C2.31267 20 1.84171 19.7782 1.49447 19.3834C1.14723 18.9886 0.952148 18.4531 0.952148 17.8948V15.9611H2.80374V17.8948H15.7649Z"/>
</mask>
<path fill-rule="evenodd" clip-rule="evenodd" d="M10.5683 9.28284H15.7037L9.28449 16.245L2.86524 9.28284H8.00064V0H10.5683V9.28284ZM15.7649 17.8948V15.9611H17.6165V17.8948C17.6165 18.4531 17.4214 18.9886 17.0742 19.3834C16.7269 19.7782 16.256 20 15.7649 20H2.80374C2.31267 20 1.84171 19.7782 1.49447 19.3834C1.14723 18.9886 0.952148 18.4531 0.952148 17.8948V15.9611H2.80374V17.8948H15.7649Z" fill="white"/>
<path d="M15.7037 9.28284L27.4668 20.1286L52.2192 -6.71716H15.7037V9.28284ZM10.5683 9.28284H-5.43166V25.2828H10.5683V9.28284ZM9.28449 16.245L-2.47854 27.0908L9.28449 39.8486L21.0475 27.0908L9.28449 16.245ZM2.86524 9.28284V-6.71716H-33.6502L-8.89779 20.1286L2.86524 9.28284ZM8.00064 9.28284V25.2828H24.0006V9.28284H8.00064ZM8.00064 0V-16H-7.99936V0H8.00064ZM10.5683 0H26.5683V-16H10.5683V0ZM15.7649 15.9611V-0.0389214H-0.235114V15.9611H15.7649ZM15.7649 17.8948V33.8948H31.7649V17.8948H15.7649ZM17.6165 15.9611H33.6165V-0.0389214H17.6165V15.9611ZM17.0742 19.3834L29.0884 29.9502L29.0884 29.9502L17.0742 19.3834ZM1.49447 19.3834L-10.5198 29.9502L-10.5198 29.9502L1.49447 19.3834ZM0.952148 15.9611V-0.0389214H-15.0479V15.9611H0.952148ZM2.80374 15.9611H18.8037V-0.0389214H2.80374V15.9611ZM2.80374 17.8948H-13.1963V33.8948H2.80374V17.8948ZM15.7037 -6.71716H10.5683V25.2828H15.7037V-6.71716ZM21.0475 27.0908L27.4668 20.1286L3.94071 -1.56294L-2.47854 5.39919L21.0475 27.0908ZM-8.89779 20.1286L-2.47854 27.0908L21.0475 5.39919L14.6283 -1.56294L-8.89779 20.1286ZM8.00064 -6.71716H2.86524V25.2828H8.00064V-6.71716ZM-7.99936 0V9.28284H24.0006V0H-7.99936ZM10.5683 -16H8.00064V16H10.5683V-16ZM26.5683 9.28284V0H-5.43166V9.28284H26.5683ZM-0.235114 15.9611V17.8948H31.7649V15.9611H-0.235114ZM17.6165 -0.0389214H15.7649V31.9611H17.6165V-0.0389214ZM33.6165 17.8948V15.9611H1.61648V17.8948H33.6165ZM29.0884 29.9502C32.1725 26.4437 33.6165 22.0806 33.6165 17.8948H1.61648C1.61648 14.8256 2.67032 11.5335 5.05987 8.81661L29.0884 29.9502ZM15.7649 36C21.2108 36 25.9463 33.5227 29.0884 29.9502L5.05991 8.81657C7.50754 6.03366 11.3012 4 15.7649 4V36ZM2.80374 36H15.7649V4H2.80374V36ZM-10.5198 29.9502C-7.37767 33.5227 -2.64213 36 2.80374 36V4C7.26746 4 11.0611 6.03366 13.5087 8.81658L-10.5198 29.9502ZM-15.0479 17.8948C-15.0479 22.0806 -13.6039 26.4437 -10.5198 29.9502L13.5087 8.8166C15.8983 11.5335 16.9521 14.8256 16.9521 17.8948H-15.0479ZM-15.0479 15.9611V17.8948H16.9521V15.9611H-15.0479ZM2.80374 -0.0389214H0.952148V31.9611H2.80374V-0.0389214ZM18.8037 17.8948V15.9611H-13.1963V17.8948H18.8037ZM15.7649 1.89477H2.80374V33.8948H15.7649V1.89477Z" fill="white" mask="url(#path-1-inside-1_198_379)"/>
</svg>
