<svg width="20" height="20" viewBox="0 0 20 20" fill="none" xmlns="http://www.w3.org/2000/svg">
<circle cx="10" cy="10" r="10" fill="#CF3D83"/>
<path fill-rule="evenodd" clip-rule="evenodd" d="M6.96485 5.00857C6.779 4.98152 6.58948 5.01893 6.42785 5.11457H6.41385C6.03885 5.33457 5.70085 5.61157 5.41285 5.93757C5.17285 6.21457 5.04285 6.49457 5.00885 6.76457C4.98885 6.92457 5.00285 7.08657 5.04985 7.23957L5.06785 7.24957C5.33785 8.04257 5.68985 8.80557 6.11985 9.52357C6.6743 10.5321 7.3566 11.4648 8.14985 12.2986L8.17385 12.3326L8.21185 12.3606L8.23485 12.3876L8.26285 12.4116C9.09958 13.2072 10.0345 13.8928 11.0448 14.4516C12.1998 15.0806 12.9008 15.3776 13.3218 15.5016V15.5076C13.4448 15.5456 13.5568 15.5626 13.6698 15.5626C14.0284 15.5361 14.3678 15.3903 14.6338 15.1486C14.9588 14.8606 15.2338 14.5216 15.4478 14.1446V14.1376C15.6488 13.7576 15.5808 13.3996 15.2908 13.1566C14.7083 12.6476 14.0785 12.1955 13.4098 11.8066C12.9618 11.5636 12.5068 11.7106 12.3228 11.9566L11.9298 12.4526C11.7278 12.6986 11.3618 12.6646 11.3618 12.6646L11.3518 12.6706C8.62085 11.9736 7.89185 9.20857 7.89185 9.20857C7.89185 9.20857 7.85785 8.83257 8.11085 8.64057L8.60285 8.24457C8.83885 8.05257 9.00285 7.59857 8.74985 7.15057C8.36345 6.48134 7.91229 5.85165 7.40285 5.27057C7.29174 5.13382 7.13591 5.04068 6.96285 5.00757L6.96485 5.00857Z" fill="#EDEDED"/>
</svg>
