<svg width="20" height="20" viewBox="0 0 20 20" fill="none" xmlns="http://www.w3.org/2000/svg">
<circle cx="10" cy="10" r="10" fill="#2AABEE"/>
<path d="M3.85839 9.45569C7.21136 7.99519 9.44667 7.03224 10.5643 6.56703C13.7592 5.2386 14.4222 5.00788 14.8553 5.00007C14.9505 4.99854 15.1625 5.02208 15.3009 5.13394C15.4159 5.22827 15.4482 5.35585 15.4644 5.44542C15.4788 5.53491 15.4985 5.73885 15.4824 5.89806C15.3099 7.71649 14.5606 12.1293 14.1796 14.166C14.0197 15.0278 13.7017 15.3167 13.3944 15.3449C12.726 15.4064 12.2193 14.9036 11.5724 14.4798C10.5607 13.8162 9.98933 13.4032 9.00644 12.7558C7.87081 12.0076 8.60753 11.5963 9.25441 10.9243C9.42331 10.7484 12.3666 8.07192 12.4223 7.82916C12.4295 7.79879 12.4367 7.68559 12.3684 7.62593C12.3019 7.5661 12.2031 7.58658 12.1312 7.60275C12.0288 7.62575 10.4134 8.69453 7.27964 10.8089C6.82144 11.1241 6.40636 11.2777 6.03261 11.2696C5.62292 11.2608 4.8323 11.0375 4.24472 10.8467C3.52597 10.6125 2.95276 10.4887 3.00308 10.0911C3.02823 9.88406 3.31394 9.67221 3.85839 9.45569Z" fill="#EDEDED"/>
</svg>
