<svg width="20" height="20" viewBox="0 0 20 20" fill="none" xmlns="http://www.w3.org/2000/svg">
<circle cx="10" cy="10" r="10" fill="#844A9F"/>
<path fill-rule="evenodd" clip-rule="evenodd" d="M5.96485 5.202C5.779 5.17495 5.58948 5.21236 5.42785 5.308H5.41385C5.03885 5.528 4.70085 5.805 4.41285 6.131C4.17285 6.408 4.04285 6.688 4.00885 6.958C3.98885 7.118 4.00285 7.28 4.04985 7.433L4.06785 7.443C4.33785 8.236 4.68985 8.999 5.11985 9.717C5.6743 10.7255 6.3566 11.6582 7.14985 12.492L7.17385 12.526L7.21185 12.554L7.23485 12.581L7.26285 12.605C8.09958 13.4006 9.03447 14.0862 10.0448 14.645C11.1998 15.274 11.9008 15.571 12.3218 15.695V15.701C12.4448 15.739 12.5568 15.756 12.6698 15.756C13.0284 15.7295 13.3678 15.5838 13.6338 15.342C13.9588 15.054 14.2338 14.715 14.4478 14.338V14.331C14.6488 13.951 14.5808 13.593 14.2908 13.35C13.7083 12.841 13.0785 12.389 12.4098 12C11.9618 11.757 11.5068 11.904 11.3228 12.15L10.9298 12.646C10.7278 12.892 10.3618 12.858 10.3618 12.858L10.3518 12.864C7.62085 12.167 6.89185 9.402 6.89185 9.402C6.89185 9.402 6.85785 9.026 7.11085 8.834L7.60285 8.438C7.83885 8.246 8.00285 7.792 7.74985 7.344C7.36345 6.67476 6.91229 6.04508 6.40285 5.464C6.29174 5.32725 6.13591 5.23411 5.96285 5.201L5.96485 5.202ZM10.5788 4C10.4462 4 10.3191 4.05268 10.2253 4.14645C10.1315 4.24021 10.0788 4.36739 10.0788 4.5C10.0788 4.63261 10.1315 4.75979 10.2253 4.85355C10.3191 4.94732 10.4462 5 10.5788 5C11.8438 5 12.8938 5.413 13.7248 6.205C14.1518 6.638 14.4848 7.151 14.7028 7.713C14.9218 8.276 15.0218 8.877 14.9958 9.479C14.9931 9.54466 15.0033 9.61022 15.0259 9.67194C15.0485 9.73366 15.083 9.79032 15.1274 9.8387C15.2173 9.93641 15.3422 9.99443 15.4748 10C15.6075 10.0056 15.7368 9.95823 15.8346 9.8684C15.9323 9.77857 15.9903 9.65361 15.9958 9.521C16.0269 8.78048 15.9039 8.04159 15.6348 7.351C15.3646 6.65714 14.9548 6.02612 14.4308 5.497L14.4208 5.487C13.3898 4.502 12.0848 4 10.5788 4ZM10.5448 5.644C10.4122 5.644 10.2851 5.69668 10.1913 5.79045C10.0975 5.88421 10.0448 6.01139 10.0448 6.144C10.0448 6.27661 10.0975 6.40379 10.1913 6.49755C10.2851 6.59132 10.4122 6.644 10.5448 6.644H10.5618C11.4738 6.709 12.1378 7.013 12.6028 7.512C13.0798 8.026 13.3268 8.665 13.3078 9.455C13.3048 9.58761 13.3546 9.716 13.4462 9.81192C13.5378 9.90785 13.6637 9.96345 13.7963 9.9665C13.929 9.96955 14.0573 9.9198 14.1533 9.82818C14.2492 9.73657 14.3048 9.61061 14.3078 9.478C14.3318 8.441 13.9978 7.546 13.3358 6.832V6.83C12.6588 6.104 11.7298 5.72 10.6118 5.645L10.5948 5.643L10.5448 5.644ZM10.5258 7.319C10.4589 7.3131 10.3915 7.32074 10.3276 7.34146C10.2637 7.36219 10.2047 7.39558 10.154 7.43964C10.1032 7.4837 10.0619 7.53752 10.0325 7.5979C10.0031 7.65827 9.98607 7.72397 9.98258 7.79105C9.97908 7.85813 9.98914 7.92523 10.0122 7.98834C10.0352 8.05145 10.0707 8.10928 10.1165 8.15837C10.1624 8.20746 10.2176 8.2468 10.279 8.27406C10.3404 8.30131 10.4067 8.31592 10.4738 8.317C10.8918 8.339 11.1588 8.465 11.3268 8.634C11.4958 8.804 11.6218 9.077 11.6448 9.504C11.6461 9.5711 11.6608 9.63726 11.6882 9.69854C11.7156 9.75982 11.755 9.81497 11.8041 9.86069C11.8532 9.90642 11.911 9.94178 11.9741 9.96469C12.0372 9.98759 12.1043 9.99756 12.1713 9.994C12.2383 9.99044 12.3039 9.97342 12.3642 9.94397C12.4245 9.91452 12.4783 9.87322 12.5223 9.82255C12.5663 9.77188 12.5996 9.71287 12.6203 9.64904C12.6411 9.5852 12.6487 9.51785 12.6428 9.451C12.6108 8.851 12.4228 8.321 12.0378 7.931C11.6508 7.541 11.1238 7.351 10.5258 7.319Z" fill="#EDEDED"/>
</svg>
