<svg width="100%" height="100%" viewBox="0 0 20 20" fill="none" xmlns="http://www.w3.org/2000/svg">
<circle cx="10" cy="10" r="10" fill="#60D668"/>
<path d="M3.05835 9.93692C3.05801 11.1594 3.37887 12.3531 3.98899 13.4052L3 17L6.69537 16.0354C7.71746 16.5893 8.86264 16.8796 10.0264 16.8797H10.0294C13.8711 16.8797 16.9984 13.7676 17 9.94239C17.0007 8.08883 16.2763 6.34586 14.9601 5.03454C13.6441 3.72333 11.8939 3.00085 10.0291 3C6.187 3 3.05994 6.11193 3.05835 9.93692Z" fill="#EDEDED"/>
<path d="M8.22567 6.93055C8.0905 6.63149 7.94825 6.62545 7.81972 6.62021C7.71446 6.6157 7.59414 6.61603 7.47393 6.61603C7.3536 6.61603 7.15811 6.66109 6.99286 6.84071C6.82744 7.02051 6.36133 7.45498 6.36133 8.33865C6.36133 9.22237 7.00787 10.0764 7.098 10.1963C7.18824 10.3161 8.34616 12.1875 10.18 12.9074C11.7041 13.5058 12.0143 13.3868 12.3451 13.3568C12.6759 13.3269 13.4126 12.9224 13.5629 12.503C13.7133 12.0836 13.7133 11.7241 13.6682 11.649C13.6231 11.5742 13.5028 11.5292 13.3223 11.4395C13.1418 11.3496 12.2548 10.9151 12.0895 10.8551C11.924 10.7953 11.8038 10.7654 11.6834 10.9452C11.5631 11.1248 11.2176 11.5292 11.1123 11.649C11.0071 11.7691 10.9018 11.784 10.7214 11.6942C10.5409 11.6041 9.95983 11.4146 9.27046 10.8028C8.7341 10.3267 8.37199 9.73879 8.26674 9.55894C8.16148 9.37938 8.25547 9.28204 8.34594 9.19254C8.427 9.11206 8.52642 8.9828 8.61672 8.87796C8.70668 8.77306 8.7367 8.69823 8.79687 8.57844C8.85709 8.45854 8.82695 8.35365 8.78191 8.26381C8.7367 8.17397 8.3861 7.28568 8.22567 6.93055Z" fill="#60D668"/>
</svg>
