<svg xmlns="http://www.w3.org/2000/svg">
    <path d="M20.1716 3.09366C19.6436 2.23666 18.6966 1.66666 17.6166 1.66666H3.61662L3.41562 1.67366C2.93845 1.70552 2.47582 1.85103 2.06633 2.09805C1.65683 2.34507 1.31235 2.68643 1.06162 3.09366L10.6166 9.46366L20.1716 3.09366ZM20.6167 14.6667V5.20166L11.1717 11.4987L11.0557 11.5647C10.919 11.6315 10.7688 11.6662 10.6167 11.6662C10.4645 11.6662 10.3144 11.6315 10.1777 11.5647L10.0617 11.4987L0.616699 5.20166V14.6667L0.621699 14.8427C0.666592 15.6066 1.00169 16.3244 1.55844 16.8494C2.11518 17.3743 2.85149 17.6667 3.6167 17.6667H17.6167L17.7927 17.6617C18.5566 17.6168 19.2745 17.2817 19.7994 16.7249C20.3244 16.1682 20.6167 15.4319 20.6167 14.6667Z"/>
</svg>
