<svg width="21" height="20" viewBox="0 0 21 20" fill="none" xmlns="http://www.w3.org/2000/svg">
<path d="M15.7796 1.295L19.4227 4.92V18.705H5.81348V18.75H19.4692V4.96562L15.7796 1.295Z" fill="#909090"/>
<path d="M15.7331 1.25H5.76562V18.705H19.4213V4.92062L15.7331 1.25Z" fill="#F4F4F4"/>
<path d="M5.66635 2.18752H1.48242V6.4544H14.6431V2.18752H5.66635Z" fill="#7A7B7C"/>
<path d="M14.7135 6.38189H1.56787V2.11189H14.7135V6.38189Z" fill="#DD2025"/>
<path d="M5.92804 2.83375H5.07227V5.83375H5.74536V4.82188L5.89399 4.83C6.03841 4.82763 6.18148 4.80293 6.31762 4.75688C6.43699 4.71769 6.5468 4.65582 6.64042 4.575C6.73569 4.49801 6.8108 4.40085 6.85977 4.29125C6.92544 4.10906 6.94889 3.91544 6.92852 3.72375C6.92443 3.58682 6.89928 3.4512 6.85387 3.32125C6.81254 3.22744 6.7512 3.14288 6.67376 3.07293C6.59631 3.00299 6.50446 2.94921 6.40405 2.915C6.31724 2.885 6.22754 2.86323 6.13625 2.85C6.06713 2.83982 5.99733 2.83439 5.92738 2.83375H5.92804ZM5.80364 4.2675H5.74536V3.3425H5.87173C5.9275 3.33866 5.98347 3.34683 6.03549 3.36641C6.0875 3.386 6.13425 3.41648 6.17227 3.45563C6.25105 3.55626 6.29313 3.67875 6.29209 3.80438C6.29209 3.95813 6.29209 4.0975 6.14673 4.19563C6.04201 4.2506 5.92282 4.27536 5.80364 4.26688V4.2675ZM8.20727 2.82563C8.13459 2.82563 8.06387 2.83063 8.01411 2.8325L7.85828 2.83625H7.34756V5.83625H7.94863C8.17834 5.84226 8.40705 5.8051 8.62173 5.72688C8.79453 5.66145 8.94755 5.55599 9.06697 5.42C9.1831 5.28279 9.26645 5.12302 9.31119 4.95188C9.36263 4.75804 9.38772 4.5587 9.38584 4.35875C9.39854 4.1226 9.37939 3.88587 9.32887 3.65438C9.28093 3.48398 9.19115 3.32693 9.06697 3.19625C8.96954 3.09073 8.85027 3.00561 8.71667 2.94625C8.60194 2.89557 8.48126 2.85822 8.35721 2.835C8.30788 2.82722 8.25792 2.82367 8.20792 2.82438L8.20727 2.82563ZM8.08875 5.285H8.02328V3.37H8.03179C8.16677 3.35518 8.30335 3.37842 8.42465 3.43688C8.51347 3.50458 8.58585 3.58988 8.63679 3.68688C8.69176 3.78896 8.72345 3.901 8.72977 4.01563C8.73566 4.15313 8.72977 4.26563 8.72977 4.35875C8.73243 4.46602 8.7252 4.57331 8.70816 4.67938C8.68798 4.78827 8.65067 4.89363 8.5975 4.99188C8.53733 5.08322 8.45602 5.16019 8.35983 5.21688C8.27904 5.26675 8.18338 5.29002 8.08744 5.28313L8.08875 5.285ZM11.4136 2.83625H9.82256V5.83625H10.4957V4.64625H11.3468V4.08875H10.4957V3.39375H11.4123V2.83625" fill="#464648"/>
<path d="M14.2622 12.6594C14.2622 12.6594 16.3496 12.2981 16.3496 12.9788C16.3496 13.6594 15.0564 13.3825 14.2622 12.6594ZM12.7189 12.7113C12.3873 12.7812 12.0641 12.8836 11.7545 13.0169L12.0164 12.4544C12.2783 11.8919 12.55 11.125 12.55 11.125C12.8625 11.6271 13.2261 12.0985 13.6356 12.5325C13.3268 12.5765 13.0208 12.6366 12.7189 12.7125V12.7113ZM11.8926 8.64876C11.8926 8.05564 12.0936 7.89376 12.2501 7.89376C12.4066 7.89376 12.5827 7.96564 12.5886 8.48064C12.5376 8.99849 12.424 9.50897 12.2501 10.0019C12.0119 9.58804 11.8886 9.12285 11.892 8.65064L11.8926 8.64876ZM8.84862 15.2213C8.20826 14.8556 10.1915 13.73 10.551 13.6938C10.549 13.6944 9.51909 15.6038 8.84862 15.2213V15.2213ZM16.9592 13.0594C16.9526 12.9969 16.8937 12.305 15.6038 12.3344C15.0662 12.3261 14.5288 12.3623 13.9977 12.4425C13.4832 11.9478 13.0402 11.3897 12.6803 10.7831C12.907 10.1578 13.0442 9.50606 13.0882 8.84564C13.0692 8.09564 12.8813 7.66564 12.2789 7.67189C11.6765 7.67814 11.5888 8.18126 11.668 8.93001C11.7456 9.43317 11.892 9.92444 12.1034 10.3913C12.1034 10.3913 11.8252 11.2181 11.4572 12.0406C11.0892 12.8631 10.8378 13.2944 10.8378 13.2944C10.1979 13.4932 9.59553 13.7886 9.05356 14.1694C8.51404 14.6488 8.29469 15.0169 8.57886 15.385C8.82374 15.7025 9.68082 15.7744 10.4469 14.8163C10.8539 14.3214 11.2258 13.8011 11.56 13.2588C11.56 13.2588 12.7281 12.9531 13.0915 12.8694C13.4549 12.7856 13.8942 12.7194 13.8942 12.7194C13.8942 12.7194 14.9608 13.7438 15.9895 13.7075C17.0181 13.6713 16.9683 13.1206 16.9618 13.0606" fill="#DD2025"/>
<path d="M15.6851 1.29814V4.96877H19.3733L15.6851 1.29814Z" fill="#909090"/>
<path d="M15.7329 1.25V4.92062H19.4212L15.7329 1.25Z" fill="#F4F4F4"/>
<path d="M5.87677 2.78561H5.021V5.78561H5.69671V4.77436L5.846 4.78248C5.99042 4.78011 6.13348 4.75542 6.26963 4.70936C6.38898 4.67015 6.49879 4.60829 6.59242 4.52748C6.68698 4.45029 6.7614 4.35314 6.80981 4.24373C6.87547 4.06155 6.89893 3.86792 6.87856 3.67623C6.87447 3.5393 6.84932 3.40369 6.80391 3.27373C6.76258 3.17993 6.70124 3.09536 6.6238 3.02542C6.54635 2.95548 6.4545 2.90169 6.35409 2.86748C6.26688 2.83719 6.17673 2.81521 6.08498 2.80186C6.01586 2.79168 5.94606 2.78625 5.87612 2.78561H5.87677ZM5.75236 4.21936H5.69409V3.29436H5.82112C5.87689 3.29052 5.93285 3.29869 5.98487 3.31827C6.03689 3.33785 6.08363 3.36834 6.12165 3.40748C6.20043 3.50812 6.24252 3.63061 6.24147 3.75623C6.24147 3.90998 6.24147 4.04936 6.09612 4.14748C5.9914 4.20246 5.8722 4.22722 5.75302 4.21873L5.75236 4.21936ZM8.156 2.77748C8.08332 2.77748 8.0126 2.78248 7.96284 2.78436L7.80897 2.78811H7.29826V5.78811H7.89933C8.12904 5.79412 8.35774 5.75696 8.57242 5.67873C8.74522 5.61331 8.89824 5.50785 9.01766 5.37186C9.13379 5.23464 9.21714 5.07488 9.26189 4.90373C9.31333 4.7099 9.33842 4.51056 9.33653 4.31061C9.34923 4.07446 9.33009 3.83773 9.27957 3.60623C9.23163 3.43584 9.14185 3.27879 9.01766 3.14811C8.92023 3.04259 8.80096 2.95747 8.66737 2.89811C8.55264 2.84743 8.43195 2.81008 8.3079 2.78686C8.25857 2.77908 8.20861 2.77553 8.15862 2.77623L8.156 2.77748ZM8.03945 5.23686H7.97397V3.32186H7.98248C8.11747 3.30703 8.25405 3.33028 8.37534 3.38873C8.46417 3.45644 8.53655 3.54173 8.58748 3.63873C8.64246 3.74082 8.67414 3.85286 8.68046 3.96748C8.68635 4.10498 8.68046 4.21748 8.68046 4.31061C8.68313 4.41788 8.6759 4.52517 8.65885 4.63123C8.63867 4.74013 8.60137 4.84548 8.5482 4.94373C8.48802 5.03508 8.40671 5.11205 8.31052 5.16873C8.22974 5.21861 8.13407 5.24188 8.03814 5.23498L8.03945 5.23686ZM11.3624 2.78811H9.77129V5.78811H10.4444V4.59811H11.2956V4.04061H10.4444V3.34561H11.3611V2.78811" fill="white"/>
</svg>
