<svg width="16" height="16" viewBox="0 0 16 16" fill="none" xmlns="http://www.w3.org/2000/svg">
<g clip-path="url(#clip0_41_127)">
<path d="M11.8379 4.25C11.4922 4.25 11.2139 4.52832 11.2139 4.87402V11.123C11.2139 12.8486 9.81641 14.249 8.08789 14.249C6.35938 14.249 4.96191 12.8486 4.96191 11.123V3.62305C4.96191 2.58887 5.7998 1.74805 6.83691 1.74805C7.87402 1.74805 8.71191 2.58887 8.71191 3.62305V9.875C8.71191 10.2207 8.43066 10.499 8.08789 10.499C7.74512 10.499 7.46387 10.2207 7.46387 9.875V4.87402C7.46387 4.52832 7.18262 4.25 6.83984 4.25C6.49414 4.25 6.21582 4.52832 6.21582 4.87402V9.875C6.21582 10.9121 7.05371 11.75 8.09082 11.75C9.12793 11.75 9.96582 10.9121 9.96582 9.875V3.62598C9.96289 1.90039 8.5625 0.5 6.83691 0.5C5.11133 0.5 3.71387 1.90039 3.71387 3.62598V11.126C3.71387 13.543 5.67383 15.5 8.08789 15.5C10.502 15.5 12.4619 13.54 12.4619 11.126V4.87402C12.4619 4.52832 12.1836 4.25 11.8379 4.25Z" fill="#CCCCCC"/>
</g>
<defs>
<clipPath id="clip0_41_127">
<rect width="15" height="15" fill="white" transform="translate(0.5 0.5)"/>
</clipPath>
</defs>
</svg>
