<svg width="25" height="24" viewBox="0 0 25 24" fill="none" xmlns="http://www.w3.org/2000/svg">
<path d="M12.5 1C6.428 1 1.5 5.928 1.5 12C1.5 18.072 6.428 23 12.5 23C18.572 23 23.5 18.072 23.5 12C23.5 5.928 18.572 1 12.5 1ZM17.604 8.48C17.439 10.218 16.724 14.442 16.361 16.389C16.207 17.214 15.899 17.489 15.613 17.522C14.975 17.577 14.491 17.104 13.875 16.697C12.907 16.059 12.357 15.663 11.422 15.047C10.333 14.332 11.037 13.936 11.664 13.298C11.829 13.133 14.645 10.57 14.7 10.339C14.7076 10.304 14.7066 10.2677 14.697 10.2332C14.6875 10.1987 14.6696 10.167 14.645 10.141C14.579 10.086 14.491 10.108 14.414 10.119C14.315 10.141 12.775 11.164 9.772 13.188C9.332 13.485 8.936 13.639 8.584 13.628C8.188 13.617 7.44 13.408 6.879 13.221C6.186 13.001 5.647 12.88 5.691 12.495C5.713 12.297 5.988 12.099 6.505 11.89C9.717 10.493 11.851 9.569 12.918 9.129C15.976 7.853 16.603 7.633 17.021 7.633C17.109 7.633 17.318 7.655 17.45 7.765C17.56 7.853 17.593 7.974 17.604 8.062C17.593 8.128 17.615 8.326 17.604 8.48Z" fill="white"/>
</svg>
