<svg width="25" height="24" viewBox="0 0 25 24" fill="none" xmlns="http://www.w3.org/2000/svg">
<circle cx="12.3154" cy="12" r="11" fill="#2AABEE" stroke="white" stroke-width="2"/>
<path d="M4.94559 11.3468C8.96916 9.59423 11.6515 8.43869 12.9927 7.88044C16.8265 6.28632 17.6222 6.00946 18.1418 6.00008C18.2561 5.99825 18.5106 6.0265 18.6766 6.16072C18.8146 6.27393 18.8534 6.42702 18.8728 6.53451C18.8901 6.64189 18.9138 6.88662 18.8944 7.07767C18.6874 9.25979 17.7882 14.5551 17.3311 16.9992C17.1392 18.0334 16.7575 18.3801 16.3888 18.4139C15.5867 18.4877 14.9786 17.8844 14.2024 17.3757C12.9884 16.5794 12.3027 16.0839 11.1233 15.307C9.7605 14.4091 10.6446 13.9156 11.4208 13.1091C11.6235 12.898 15.1554 9.6863 15.2223 9.39499C15.2309 9.35855 15.2395 9.2227 15.1576 9.15112C15.0778 9.07931 14.9592 9.1039 14.873 9.1233C14.7501 9.1509 12.8116 10.4334 9.05109 12.9707C8.50125 13.3489 8.00316 13.5333 7.55466 13.5236C7.06303 13.513 6.11428 13.245 5.40919 13.016C4.54669 12.735 3.85884 12.5865 3.91922 12.1093C3.94941 11.8609 4.29225 11.6067 4.94559 11.3468Z" fill="#EDEDED"/>
</svg>
