<svg width="20" height="21" viewBox="0 0 20 21" fill="none" xmlns="http://www.w3.org/2000/svg">
<g clip-path="url(#clip0_3_214)">
<path d="M19.6873 0.630916C19.9328 0.809487 20.0333 1.04758 19.9886 1.3452L17.1315 18.4881C17.0943 18.7038 16.9752 18.8712 16.7743 18.9903C16.6702 19.0498 16.5548 19.0796 16.4283 19.0796C16.3465 19.0796 16.2572 19.061 16.1605 19.0238L11.1047 16.959L8.40379 20.2515C8.26986 20.4226 8.08757 20.5081 7.85692 20.5081C7.76019 20.5081 7.67835 20.4933 7.61138 20.4635C7.47001 20.4114 7.35655 20.324 7.27098 20.2012C7.18541 20.0785 7.14263 19.9427 7.14263 19.7939V15.8988L16.7855 4.07958L4.85469 14.4032L0.446204 12.5952C0.170906 12.491 0.0220967 12.2864 -0.000224764 11.9814C-0.0151057 11.6837 0.103942 11.4642 0.356918 11.3229L18.9283 0.608595C19.04 0.54163 19.159 0.508148 19.2855 0.508148C19.4343 0.508148 19.5682 0.549071 19.6873 0.630916Z" fill="#3869B7"/>
</g>
<defs>
<clipPath id="clip0_3_214">
<rect width="20" height="20" fill="white" transform="translate(0 0.508148)"/>
</clipPath>
</defs>
</svg>
