<svg width="21" height="20" viewBox="0 0 21 20" fill="none" xmlns="http://www.w3.org/2000/svg">
<path d="M18.2084 16.9083L17.025 18.0917C16.8689 18.2469 16.6577 18.334 16.4375 18.334C16.2174 18.334 16.0062 18.2469 15.85 18.0917L5.95004 8.20833C5.67905 8.28684 5.39881 8.32887 5.11671 8.33333C4.58613 8.33295 4.0633 8.20592 3.5917 7.9628C3.1201 7.71968 2.71335 7.36749 2.40526 6.93552C2.09718 6.50355 1.89666 6.00427 1.82038 5.4792C1.7441 4.95413 1.79427 4.41844 1.96671 3.91666L4.08338 6.03333L4.52504 5.59166L5.70838 4.40833L6.15004 3.96666L4.03338 1.85C4.53515 1.67756 5.07085 1.62739 5.59592 1.70367C6.12099 1.77995 6.62026 1.98046 7.05223 2.28855C7.4842 2.59663 7.83639 3.00339 8.07951 3.47499C8.32263 3.94659 8.44966 4.46942 8.45004 5C8.44559 5.2821 8.40355 5.56234 8.32504 5.83333L18.2084 15.7333C18.3636 15.8895 18.4507 16.1007 18.4507 16.3208C18.4507 16.541 18.3636 16.7522 18.2084 16.9083ZM2.02504 15.7333C1.86983 15.8895 1.78271 16.1007 1.78271 16.3208C1.78271 16.541 1.86983 16.7522 2.02504 16.9083L3.20838 18.0917C3.36451 18.2469 3.57572 18.334 3.79588 18.334C4.01603 18.334 4.22724 18.2469 4.38338 18.0917L8.94171 13.5417L6.58338 11.1833M16.7834 1.66666L13.45 3.33333V5L11.6417 6.80833L13.3084 8.475L15.1167 6.66666H16.7834L18.45 3.33333L16.7834 1.66666Z" fill="white"/>
</svg>
