<svg width="25" height="24" viewBox="0 0 25 24" xmlns="http://www.w3.org/2000/svg">
<path d="M21.4252 6.36C18.2902 1.5 11.8702 0.0599962 6.90517 3.075C2.06017 6.09 0.500173 12.66 3.63517 17.505L3.89017 17.895L2.84017 21.825L6.77017 20.775L7.16017 21.03C8.85517 21.945 10.7002 22.47 12.5302 22.47C14.4952 22.47 16.4602 21.945 18.1552 20.895C23.0002 17.745 24.4402 11.31 21.4252 6.33V6.36ZM18.6802 16.47C18.1552 17.25 17.4952 17.775 16.5802 17.91C16.0552 17.91 15.3952 18.165 12.7852 17.13C10.5652 16.08 8.72017 14.37 7.41517 12.405C6.63517 11.49 6.23017 10.305 6.11017 9.12C6.11017 8.07 6.50017 7.155 7.16017 6.495C7.41517 6.24 7.68517 6.105 7.94017 6.105H8.60017C8.85517 6.105 9.12517 6.105 9.26017 6.63C9.51517 7.29 10.1752 8.865 10.1752 9C10.3102 9.135 10.2502 10.14 9.65017 10.71C9.32017 11.085 9.26017 11.1 9.39517 11.37C9.92017 12.15 10.5802 12.945 11.2252 13.605C12.0052 14.265 12.8002 14.79 13.7152 15.18C13.9702 15.315 14.2402 15.315 14.3752 15.045C14.5102 14.79 15.1552 14.13 15.4252 13.86C15.6802 13.605 15.8152 13.605 16.0852 13.725L18.1852 14.775C18.4402 14.91 18.7102 15.03 18.8452 15.165C18.9802 15.555 18.9802 16.08 18.7102 16.47H18.6802Z"/>
</svg>
