<svg width="25" height="24" viewBox="0 0 25 24" fill="none" xmlns="http://www.w3.org/2000/svg">
<g clip-path="url(#clip0_51_784)">
<path d="M1.18883 11.8564C1.18827 13.8728 1.7111 15.8418 2.70526 17.5772L1.09375 23.5067L7.11517 21.9156C8.78061 22.8293 10.6466 23.3081 12.5429 23.3082H12.5478C18.8077 23.3082 23.9034 18.1749 23.906 11.8654C23.9072 8.808 22.7268 5.93302 20.5821 3.77005C18.4378 1.60726 15.586 0.415534 12.5474 0.414139C6.2868 0.414139 1.1915 5.54716 1.18892 11.8564" fill="url(#paint0_linear_51_784)"/>
<path d="M0.78334 11.8527C0.782693 13.9417 1.32426 15.981 2.35386 17.7786L0.68457 23.9207L6.92189 22.2726C8.64048 23.2168 10.5754 23.7147 12.5444 23.7154H12.5494C19.0339 23.7154 24.3126 18.3975 24.3153 11.8621C24.3164 8.69488 23.0936 5.71656 20.8723 3.47609C18.6507 1.23591 15.6968 0.00130233 12.5494 0C6.06389 0 0.785924 5.31721 0.78334 11.8527ZM4.4978 17.469L4.26491 17.0965C3.28589 15.5277 2.76916 13.7149 2.76989 11.8534C2.77202 6.4213 7.15885 2.00186 12.5531 2.00186C15.1654 2.00298 17.6204 3.02921 19.467 4.89116C21.3134 6.7533 22.3294 9.22865 22.3288 11.8614C22.3264 17.2935 17.9395 21.7135 12.5494 21.7135H12.5456C10.7905 21.7126 9.06925 21.2376 7.56814 20.34L7.21091 20.1265L3.50956 21.1045L4.4978 17.4689V17.469Z" fill="url(#paint1_linear_51_784)"/>
<path d="M9.60865 6.89749C9.3884 6.40418 9.15662 6.39423 8.94717 6.38558C8.77566 6.37814 8.5796 6.37869 8.38372 6.37869C8.18766 6.37869 7.86911 6.45302 7.59985 6.7493C7.33031 7.04586 6.5708 7.76251 6.5708 9.22009C6.5708 10.6778 7.62431 12.0864 7.77117 12.2843C7.91822 12.4818 9.80499 15.5686 12.7932 16.7562C15.2766 17.7431 15.782 17.5468 16.321 17.4973C16.8601 17.448 18.0604 16.7808 18.3053 16.089C18.5504 15.3973 18.5504 14.8044 18.4769 14.6805C18.4034 14.557 18.2074 14.4829 17.9134 14.3348C17.6193 14.1866 16.1739 13.4699 15.9045 13.371C15.635 13.2722 15.439 13.2229 15.2429 13.5195C15.0469 13.8157 14.4839 14.4829 14.3123 14.6805C14.1409 14.8785 13.9693 14.9032 13.6754 14.755C13.3812 14.6063 12.4344 14.2939 11.3111 13.2846C10.4371 12.4993 9.84708 11.5296 9.67557 11.2329C9.50406 10.9367 9.6572 10.7762 9.80462 10.6286C9.93671 10.4958 10.0987 10.2826 10.2458 10.1097C10.3924 9.93665 10.4414 9.81321 10.5394 9.61562C10.6375 9.41786 10.5884 9.24483 10.515 9.09665C10.4414 8.94846 9.87006 7.48325 9.60865 6.89749Z" fill="white"/>
</g>
<defs>
<linearGradient id="paint0_linear_51_784" x1="1141.71" y1="2309.67" x2="1141.71" y2="0.414139" gradientUnits="userSpaceOnUse">
<stop stop-color="#1FAF38"/>
<stop offset="1" stop-color="#60D669"/>
</linearGradient>
<linearGradient id="paint1_linear_51_784" x1="1182.22" y1="2392.07" x2="1182.22" y2="0" gradientUnits="userSpaceOnUse">
<stop stop-color="#F9F9F9"/>
<stop offset="1" stop-color="white"/>
</linearGradient>
<clipPath id="clip0_51_784">
<rect width="23.6308" height="24" fill="white" transform="translate(0.68457)"/>
</clipPath>
</defs>
</svg>
